<?xml version="1.0" standalone="no"?>
<!DOCTYPE svg PUBLIC "-//W3C//DTD SVG 20010904//EN"
 "http://www.w3.org/TR/2001/REC-SVG-20010904/DTD/svg10.dtd">
<svg version="1.0" xmlns="http://www.w3.org/2000/svg"
 width="121.000000pt" height="37.000000pt" viewBox="0 0 121.000000 37.000000"
 preserveAspectRatio="xMidYMid meet">

<g transform="translate(0.000000,37.000000) scale(0.100000,-0.100000)"
fill="#000000" stroke="none">
<path d="M72 185 l-62 -125 49 0 c40 0 50 3 54 20 7 26 44 26 52 0 6 -19 15
-20 124 -20 l119 0 10 40 10 40 -39 0 -39 0 0 80 0 80 -45 0 -45 0 -1 -112 0
-113 -60 118 c-32 64 -60 117 -62 117 -1 0 -30 -56 -65 -125z m78 -25 c0 -5
-4 -10 -9 -10 -6 0 -13 5 -16 10 -3 6 1 10 9 10 9 0 16 -4 16 -10z"/>
<path d="M450 180 l0 -120 74 0 74 0 6 31 c9 48 9 49 -29 49 l-35 0 0 80 0 80
-45 0 -45 0 0 -120z"/>
<path d="M640 180 l0 -120 79 0 79 0 6 31 c9 48 9 49 -41 51 -37 1 -40 2 -15
5 28 4 32 8 32 33 0 25 -4 29 -32 33 -25 3 -21 4 16 5 l49 2 -7 31 c-3 17 -6
35 -6 40 0 5 -36 9 -80 9 l-80 0 0 -120z"/>
<path d="M840 180 l0 -120 50 0 c49 0 50 0 50 31 l0 31 38 -29 c65 -52 62 -56
62 81 l0 126 -45 0 c-43 0 -45 -1 -45 -30 0 -16 -2 -30 -5 -30 -3 0 -24 14
-47 30 -22 17 -45 30 -50 30 -4 0 -8 -54 -8 -120z"/>
<path d="M1120 255 c-15 -18 -10 -45 13 -59 23 -15 51 3 54 35 l2 24 -7 -24
c-7 -23 -8 -23 -22 -5 -9 10 -10 15 -2 10 6 -4 12 -2 12 3 0 6 -7 11 -15 11
-8 0 -15 -9 -15 -21 0 -11 4 -18 9 -14 5 3 13 0 16 -6 5 -7 -1 -9 -16 -7 -35
4 -34 49 1 59 22 6 23 7 4 8 -12 1 -27 -6 -34 -14z"/>
</g>
</svg>
